<svg xmlns="http://www.w3.org/2000/svg" xmlns:xlink="http://www.w3.org/1999/xlink" width="500" zoomAndPan="magnify" viewBox="0 0 375 374.999991" height="500" preserveAspectRatio="xMidYMid meet" version="1.0"><defs><g/></defs><rect x="-37.5" width="450" fill="#ffffff" y="-37.499999" height="449.999989" fill-opacity="1"/><rect x="-37.5" width="450" fill="#ffffff" y="-37.499999" height="449.999989" fill-opacity="1"/><path stroke-linecap="butt" transform="matrix(-0.63622, 0, 0, -0.63622, 298.613774, 149.036503)" fill="none" stroke-linejoin="miter" d="M 0.000774011 4.999896 L 84.435002 4.999896 " stroke="#000000" stroke-width="10" stroke-opacity="1" stroke-miterlimit="4"/><g fill="#000000" fill-opacity="1"><g transform="translate(92.942851, 204.50271)"><g><path d="M 28.851562 -7.777344 L 34.980469 -7.777344 L 34.980469 -31.875 C 34.980469 -32.035156 34.816406 -32.238281 34.535156 -32.238281 L 29.214844 -32.238281 C 29.054688 -32.238281 28.851562 -32.117188 28.773438 -31.996094 L 17.773438 -8.382812 L 6.207031 -31.996094 C 6.164062 -32.117188 5.925781 -32.238281 5.804688 -32.238281 L 0.402344 -32.238281 C 0.121094 -32.238281 0 -32.035156 0 -31.875 L 0 -0.363281 C 0 -0.203125 0.121094 0 0.402344 0 L 5.722656 0 C 5.964844 0 6.164062 -0.203125 6.164062 -0.363281 L 6.164062 -18.457031 L 14.910156 -1.53125 C 14.949219 -1.410156 15.191406 -1.289062 15.3125 -1.289062 L 20.269531 -1.289062 C 20.390625 -1.289062 20.59375 -1.410156 20.632812 -1.53125 L 28.851562 -18.011719 Z M 28.851562 -7.777344 "/></g></g></g><g fill="#000000" fill-opacity="1"><g transform="translate(134.121033, 204.50271)"><g><path d="M 22.003906 -0.523438 C 19.988281 -4.996094 17.8125 -9.429688 15.796875 -13.984375 C 19.019531 -15.152344 21.722656 -17.730469 21.722656 -22.648438 C 21.722656 -32.15625 12.652344 -32.238281 10.839844 -32.238281 L 0.402344 -32.238281 C 0.203125 -32.238281 0 -32.035156 0 -31.875 L 0 -26.394531 L 10.839844 -26.394531 C 11.808594 -26.394531 15.59375 -26.195312 15.59375 -22.648438 C 15.59375 -19.101562 12.171875 -18.941406 10.839844 -18.941406 L 0 -18.941406 L 0 -0.363281 C 0 -0.203125 0.203125 0 0.402344 0 L 5.683594 0 C 5.925781 0 6.125 -0.203125 6.125 -0.363281 L 6.125 -13.015625 L 9.589844 -13.015625 L 15.472656 -0.242188 C 15.515625 -0.121094 15.757812 0 15.878906 0 L 21.640625 0 C 21.960938 0 22.125 -0.242188 22.003906 -0.523438 Z M 22.003906 -0.523438 "/></g></g></g><g fill="#000000" fill-opacity="1"><g transform="translate(161.721302, 204.50271)"><g><path d="M 13.136719 -5.519531 L 9.914062 -5.519531 L 9.914062 -32.238281 L 3.746094 -32.238281 L 3.746094 -5.519531 L 0.441406 -5.519531 C 0.203125 -5.519531 0 -5.359375 0 -5.15625 L 0 -0.363281 C 0 -0.203125 0.203125 0 0.441406 0 L 13.136719 0 C 13.417969 0 13.582031 -0.203125 13.582031 -0.363281 L 13.582031 -5.15625 C 13.582031 -5.359375 13.417969 -5.519531 13.136719 -5.519531 Z M 13.136719 -5.519531 "/></g></g></g><g fill="#000000" fill-opacity="1"><g transform="translate(180.417353, 204.50271)"><g><path d="M 6.648438 -20.550781 L 6.648438 -0.363281 C 6.648438 -0.203125 6.808594 0 7.09375 0 L 12.289062 0 C 12.574219 0 12.773438 -0.203125 12.773438 -0.363281 L 12.773438 -20.550781 Z M 0.441406 -26.71875 L 18.941406 -26.71875 C 19.222656 -26.71875 19.382812 -26.878906 19.382812 -27.082031 L 19.382812 -31.875 C 19.382812 -32.035156 19.222656 -32.238281 18.941406 -32.238281 L 0.441406 -32.238281 C 0.203125 -32.238281 0 -32.035156 0 -31.875 L 0 -27.082031 C 0 -26.878906 0.203125 -26.71875 0.441406 -26.71875 Z M 0.441406 -26.71875 "/></g></g></g><g fill="#000000" fill-opacity="1"><g transform="translate(205.197277, 204.50271)"><g><path d="M 14.789062 -17.890625 C 12.492188 -18.980469 10.234375 -18.980469 10.035156 -18.980469 C 7.980469 -18.980469 6.003906 -20.1875 6.003906 -22.527344 C 6.003906 -25.105469 7.816406 -26.4375 10.035156 -26.4375 C 12.128906 -26.4375 13.902344 -25.347656 13.984375 -23.050781 C 13.984375 -22.929688 14.183594 -22.726562 14.425781 -22.726562 L 19.464844 -22.726562 C 19.746094 -22.726562 19.949219 -22.929688 19.90625 -23.050781 C 19.828125 -28.53125 15.554688 -32.238281 10.035156 -32.238281 C 4.875 -32.238281 0 -28.570312 0 -22.527344 C 0 -18.777344 1.894531 -15.917969 5.238281 -14.386719 C 7.574219 -13.296875 9.753906 -13.296875 10.035156 -13.296875 C 11.847656 -13.21875 14.0625 -11.765625 14.0625 -9.390625 C 14.0625 -7.253906 12.171875 -5.804688 10.035156 -5.804688 C 10.035156 -5.804688 10.035156 -5.804688 9.992188 -5.804688 L 9.992188 0 C 10.035156 0 10.035156 0 10.035156 0 C 15.191406 0 20.027344 -3.34375 20.027344 -9.390625 C 20.027344 -13.175781 18.175781 -16.320312 14.789062 -17.890625 Z M 14.789062 -17.890625 "/></g></g></g><g fill="#000000" fill-opacity="1"><g transform="translate(230.662146, 204.50271)"><g><path d="M 18.539062 -16.039062 C 18.539062 -17.730469 17.207031 -19.101562 15.515625 -19.101562 C 13.824219 -19.101562 12.492188 -17.730469 12.492188 -16.039062 C 12.492188 -14.386719 13.824219 -13.015625 15.515625 -13.015625 C 17.207031 -13.015625 18.539062 -14.386719 18.539062 -16.039062 Z M 31.03125 -16.160156 C 31.03125 -24.179688 25.832031 -32.238281 15.554688 -32.238281 C 5.117188 -32.238281 0 -24.179688 0 -16.160156 C 0 -8.101562 5.117188 0 15.554688 0 C 25.832031 0 31.03125 -8.101562 31.03125 -16.160156 Z M 24.984375 -16.039062 C 24.984375 -10.839844 21.800781 -5.640625 15.554688 -5.640625 C 9.226562 -5.640625 6.085938 -10.839844 6.085938 -16.039062 C 6.085938 -21.316406 9.226562 -26.554688 15.554688 -26.554688 C 21.800781 -26.554688 24.984375 -21.316406 24.984375 -16.039062 Z M 24.984375 -16.039062 "/></g></g></g><g fill="#000000" fill-opacity="1"><g transform="translate(267.650107, 204.50271)"><g><path d="M 17.410156 -6.003906 L 0 -6.003906 L 0 -0.363281 C 0 -0.203125 0.203125 0 0.441406 0 L 17.410156 0 C 17.691406 0 17.851562 -0.203125 17.851562 -0.363281 L 17.851562 -5.601562 C 17.851562 -5.804688 17.691406 -6.003906 17.410156 -6.003906 Z M 6.164062 -12.171875 L 6.164062 -31.875 C 6.164062 -32.035156 6.003906 -32.238281 5.761719 -32.238281 L 0.441406 -32.238281 C 0.203125 -32.238281 0 -32.035156 0 -31.875 L 0 -12.171875 Z M 6.164062 -12.171875 "/></g></g></g><path stroke-linecap="butt" transform="matrix(0, -0.63622, 0.63622, 0, 292.255473, 197.044542)" fill="none" stroke-linejoin="miter" d="M 0.00247322 5.001456 L 82.465833 5.001456 " stroke="#000000" stroke-width="10" stroke-opacity="1" stroke-miterlimit="4"/><path stroke-linecap="butt" transform="matrix(0.63622, 0, 0, 0.63622, 76.379047, 225.963487)" fill="none" stroke-linejoin="miter" d="M -0.000220732 4.999912 L 84.434008 4.999912 " stroke="#000000" stroke-width="10" stroke-opacity="1" stroke-miterlimit="4"/><path stroke-linecap="butt" transform="matrix(0, 0.63622, -0.63622, 0, 82.737985, 178.591659)" fill="none" stroke-linejoin="miter" d="M -0.00285266 4.997314 L 82.460507 4.997314 " stroke="#000000" stroke-width="10" stroke-opacity="1" stroke-miterlimit="4"/></svg>